# xmcd CD database file
#
# Track frame offsets:
#	150
#	21968
#	37796
#	55615
#	70038
#	82135
#	101262
#	122706
#
# Disc length: 1902 seconds
#
# Revision: 7
# Processed by: cddbd v1.5.2PL0 Copyright (c) Steve Scherf et al.
# Submitted via: CDex 1.70beta3
#
DISCID=5a076c08
DTITLE=Marvin Gaye - Let's Get It On (2008 Remastered by MFSL)
DYEAR=1973
DGENRE=R&B
TTITLE0=Let's Get It On
TTITLE1=Please Stay (Once You Go Away)
TTITLE2=If I Should Die Tonight
TTITLE3=Keep Gettin' It On
TTITLE4=Come Get To This
TTITLE5=Distant Lover
TTITLE6=You Sure Love To Ball
TTITLE7=Just To Keep You Satisfied
EXTD=YEAR: 1973
EXTT0=
EXTT1=
EXTT2=
EXTT3=
EXTT4=
EXTT5=
EXTT6=
EXTT7=
PLAYORDER=
